<?xml version="1.0" encoding="utf-8"?>
<!-- Generator: Adobe Illustrator 21.1.0, SVG Export Plug-In . SVG Version: 6.00 Build 0)  -->
<svg version="1.1" xmlns="http://www.w3.org/2000/svg" xmlns:xlink="http://www.w3.org/1999/xlink" x="0px" y="0px"
	 viewBox="0 0 3000 2070" enable-background="new 0 0 3000 2070" xml:space="preserve">
<g id="background">
	<image overflow="visible" width="3000" height="2070" xlink:href="computensian_3000.jpg" >
	</image>
</g>
<g id="elements">
	<g id="cto1">
		
			<rect x="305.4" y="84.8" fill="none" stroke="#B22B0A" stroke-width="2.7317" stroke-miterlimit="10" width="180.2" height="1229.4"/>
		<circle fill="#B22B0A" cx="401.1" cy="84.8" r="13.7"/>
	</g>
	<g id="cs1">
		
			<rect x="485.7" y="84.8" fill="none" stroke="#B22B0A" stroke-width="4.0605" stroke-miterlimit="10" width="383.5" height="1229.4"/>
		<circle fill="#B22B0A" cx="677.5" cy="84.8" r="13.7"/>
	</g>
	<g id="cs2">
		
			<rect x="869.2" y="84.8" transform="matrix(-1 -1.224647e-16 1.224647e-16 -1 1992.5276 1420.838)" fill="none" stroke="#B22B0A" stroke-width="4.0964" stroke-miterlimit="10" width="254.1" height="1251.2"/>
		<circle fill="#B22B0A" cx="996.3" cy="84.8" r="13.7"/>
	</g>
	<g id="cs4">
		
			<rect x="1123.3" y="84.8" fill="none" stroke="#B22B0A" stroke-width="4.0964" stroke-miterlimit="10" width="437.4" height="1251.2"/>
		<circle fill="#B22B0A" cx="1342" cy="84.8" r="13.7"/>
	</g>
	<g id="cs3">
		<rect x="869.2" y="1336" fill="none" stroke="#B22B0A" stroke-width="5.087" stroke-miterlimit="10" width="691.5" height="449"/>
		<circle fill="#B22B0A" cx="1206.6" cy="1785.1" r="13.7"/>
	</g>
	<g id="ct1">
		
			<rect x="1560.7" y="131.8" transform="matrix(-1 -1.224647e-16 1.224647e-16 -1 3625.3655 1446.0438)" fill="none" stroke="#B22B0A" stroke-width="3.9821" stroke-miterlimit="10" width="503.9" height="1182.4"/>
		<circle fill="#B22B0A" cx="1812.7" cy="131.8" r="13.7"/>
	</g>
	<g id="ct2">
		
			<rect x="2064.7" y="131.8" fill="none" stroke="#B22B0A" stroke-width="3.8985" stroke-miterlimit="10" width="251.3" height="1133.2"/>
		<circle fill="#B22B0A" cx="2190.3" cy="131.8" r="13.7"/>
	</g>
	<g id="cs5">
		
			<rect x="2316" y="131.8" transform="matrix(-1 -1.224647e-16 1.224647e-16 -1 5020 854.8678)" fill="none" stroke="#B22B0A" stroke-width="2.8157" stroke-miterlimit="10" width="388" height="591.2"/>
		<circle fill="#B22B0A" cx="2478.6" cy="131.8" r="13.7"/>
	</g>
	<g id="cto2">
		
			<rect x="2316" y="723" transform="matrix(-1 -1.224647e-16 1.224647e-16 -1 5020 1988.1019)" fill="none" stroke="#B22B0A" stroke-width="2.8157" stroke-miterlimit="10" width="388" height="542.1"/>
		<circle fill="#B22B0A" cx="2704" cy="963.3" r="13.7"/>
	</g>
	<g id="cto3">
		
			<rect x="2704" y="1265.1" transform="matrix(-1 -1.224647e-16 1.224647e-16 -1 5593.7759 3060.1672)" fill="none" stroke="#B22B0A" stroke-width="1.7566" stroke-miterlimit="10" width="185.8" height="530"/>
		<circle fill="#B22B0A" cx="2796.9" cy="1795.1" r="13.7"/>
	</g>
</g>
</svg>
