<?xml version="1.0" encoding="utf-8"?>
<!-- Generator: Adobe Illustrator 21.1.0, SVG Export Plug-In . SVG Version: 6.00 Build 0)  -->
<svg version="1.1" id="Layer_1" xmlns="http://www.w3.org/2000/svg" xmlns:xlink="http://www.w3.org/1999/xlink" x="0px" y="0px"
	 viewBox="0 0 1167.6 763.2" enable-background="new 0 0 1167.6 763.2" xml:space="preserve">
<g>
	<g>

			<image overflow="visible" enable-background="new    " width="3000" height="2070" xlink:href="../public/computensian_3000.jpg"  transform="matrix(0.3687 0 0 0.3687 0 0)">
		</image>
		<g>
			<g>
				<g id="cs1">
					<path opacity="2.000000e-02" d="M179.1,41.3c0-5.5,4.5-10,10-10h121.4c5.5,0,10,4.5,10,10v433.3c0,5.5-4.5,10-10,10H189.1
						c-5.5,0-10-4.5-10-10V41.3z"/>
					<path fill="none" stroke="#BE1E2D" stroke-width="2" stroke-miterlimit="10" stroke-dasharray="2.0002,2.0002" d="M179.1,41.3
						c0-5.5,4.5-10,10-10h121.4c5.5,0,10,4.5,10,10v433.3c0,5.5-4.5,10-10,10H189.1c-5.5,0-10-4.5-10-10V41.3z"/>
				</g>
				<circle id="cs1_1_" fill="#BE1E2D" cx="249.8" cy="31.3" r="8"/>
			</g>
			<g>
				<g id="cs2">
					<path opacity="2.000000e-02" d="M320.5,41.3c0-5.5,4.5-10,10-10h73.7c5.5,0,10,4.5,10,10v441.3c0,5.5-4.5,10-10,10h-73.7
						c-5.5,0-10-4.5-10-10V41.3z"/>
					<path fill="none" stroke="#BE1E2D" stroke-width="2" stroke-miterlimit="10" stroke-dasharray="2.0014,2.0014" d="M320.5,41.3
						c0-5.5,4.5-10,10-10h73.7c5.5,0,10,4.5,10,10v441.3c0,5.5-4.5,10-10,10h-73.7c-5.5,0-10-4.5-10-10V41.3z"/>
				</g>
				<circle id="cs2_1_" fill="#BE1E2D" cx="367.3" cy="31.3" r="8"/>
			</g>
			<g>
				<g id="cs3">
					<path opacity="2.000000e-02" d="M320.5,502.6c0-5.5,4.5-10,10-10h235c5.5,0,10,4.5,10,10v145.5c0,5.5-4.5,10-10,10h-235
						c-5.5,0-10-4.5-10-10V502.6z"/>
					<path fill="none" stroke="#BE1E2D" stroke-width="2" stroke-miterlimit="10" stroke-dasharray="1.9995,1.9995" d="M320.5,502.6
						c0-5.5,4.5-10,10-10h235c5.5,0,10,4.5,10,10v145.5c0,5.5-4.5,10-10,10h-235c-5.5,0-10-4.5-10-10V502.6z"/>
				</g>
				<circle id="cs3_1_" fill="#BE1E2D" cx="444.9" cy="658.2" r="8"/>
			</g>
			<g>
				<g id="cs4">
					<path opacity="2.000000e-02" d="M414.2,41.3c0-5.5,4.5-10,10-10h141.3c5.5,0,10,4.5,10,10v441.3c0,5.5-4.5,10-10,10H424.2
						c-5.5,0-10-4.5-10-10V41.3z"/>
					<path fill="none" stroke="#BE1E2D" stroke-width="2" stroke-miterlimit="10" stroke-dasharray="1.9999,1.9999" d="M414.2,41.3
						c0-5.5,4.5-10,10-10h141.3c5.5,0,10,4.5,10,10v441.3c0,5.5-4.5,10-10,10H424.2c-5.5,0-10-4.5-10-10V41.3z"/>
				</g>
				<circle id="cs4_1_" fill="#BE1E2D" cx="494.8" cy="31.3" r="8"/>
			</g>
			<g>
				<g id="cs5">
					<path opacity="2.000000e-02" d="M853.9,58.6c0-5.5,4.5-10,10-10H987c5.5,0,10,4.5,10,10v198c0,5.5-4.5,10-10,10H863.9
						c-5.5,0-10-4.5-10-10V58.6z"/>
					<path fill="none" stroke="#BE1E2D" stroke-width="2" stroke-miterlimit="10" stroke-dasharray="2.0024,2.0024" d="M853.9,58.6
						c0-5.5,4.5-10,10-10H987c5.5,0,10,4.5,10,10v198c0,5.5-4.5,10-10,10H863.9c-5.5,0-10-4.5-10-10V58.6z"/>
				</g>
				<circle id="cs5_1_" fill="#BE1E2D" cx="913.9" cy="48.6" r="8"/>
			</g>
			<g>
				<g id="ct1">
					<path fill="none" stroke="#1B75BC" stroke-width="2" stroke-miterlimit="10" stroke-dasharray="1.9972,1.9972" d="M575.4,58.6
						c0-5.5,4.5-10,10-10h165.8c5.5,0,10,4.5,10,10v416c0,5.5-4.5,10-10,10H585.4c-5.5,0-10-4.5-10-10V58.6z"/>
				</g>
				<circle id="ct1_1_" fill="#1B75BC" cx="668.3" cy="48.6" r="8"/>
			</g>
			<g>
				<g id="ct2">
					<path fill="none" stroke="#1B75BC" stroke-width="2" stroke-miterlimit="10" stroke-dasharray="1.9994,1.9994" d="M761.3,58.6
						c0-5.5,4.5-10,10-10h72.7c5.5,0,10,4.5,10,10v397.8c0,5.5-4.5,10-10,10h-72.7c-5.5,0-10-4.5-10-10V58.6z"/>
				</g>
				<circle id="ct2_1_" fill="#1B75BC" cx="807.6" cy="48.6" r="8"/>
			</g>
			<g>
				<g id="cto1">
					<path fill="none" stroke="#CC9933" stroke-width="2" stroke-miterlimit="10" stroke-dasharray="1.9965,1.9965" d="M112.6,41.3
						c0-5.5,4.5-10,10-10H169c5.5,0,10,4.5,10,10v433.3c0,5.5-4.5,10-10,10h-46.4c-5.5,0-10-4.5-10-10V41.3z"/>
				</g>
				<g id="cto1_1_">
					<circle fill="#CC9933" stroke="#CC9933" stroke-miterlimit="10" cx="147.9" cy="31.3" r="8"/>
				</g>
			</g>
			<g>
				<g id="cto2">
					<path fill="none" stroke="#CC9933" stroke-width="2" stroke-miterlimit="10" stroke-dasharray="2.0019,2.0019" d="M853.9,276.6
						c0-5.5,4.5-10,10-10H987c5.5,0,10,4.5,10,10v179.9c0,5.5-4.5,10-10,10H863.9c-5.5,0-10-4.5-10-10V276.6z"/>
				</g>
				<g id="cto2_1_">
					<circle fill="#CC9933" stroke="#CC9933" stroke-miterlimit="10" cx="997" cy="355.2" r="8"/>
				</g>
			</g>
			<g>
				<g id="cto3">
					<path fill="none" stroke="#CC9933" stroke-width="2" stroke-miterlimit="10" stroke-dasharray="1.9946,1.9946" d="M997,476.4
						c0-5.5,4.5-10,10-10h48.5c5.5,0,10,4.5,10,10v175.4c0,5.5-4.5,10-10,10H1007c-5.5,0-10-4.5-10-10V476.4z"/>
				</g>
				<g id="cto3_1_">
					<circle fill="#CC9933" stroke="#CC9933" stroke-miterlimit="10" cx="1031.2" cy="661.9" r="8"/>
				</g>
			</g>
		</g>
	</g>
</g>
<rect x="1106.1" fill="#F5F2EC" width="69.9" height="763.2"/>
</svg>
